HIERARCHY
ROOT Hips
{
  OFFSET 1.44216e-005 102.336 -0.101585
  CHANNELS 6 Xposition Yposition Zposition Zrotation Xrotation Yrotation
  JOINT RightUpLeg
  {
    OFFSET -8.9458 -8.66707 0.101652
    CHANNELS 6 Xposition Yposition Zposition Zrotation Xrotation Yrotation
    JOINT RightLeg
    {
      OFFSET 0 -44.4227 1.3727
      CHANNELS 6 Xposition Yposition Zposition Zrotation Xrotation Yrotation
      JOINT RightFoot
      {
        OFFSET 0.253549 -42.0924 -1.46059
        CHANNELS 6 Xposition Yposition Zposition Zrotation Xrotation Yrotation
        JOINT RightToes
        {
          OFFSET 0.04 -4.41509 8.4991
          CHANNELS 6 Xposition Yposition Zposition Zrotation Xrotation Yrotation
          End Site
          {
            OFFSET -0.08 -0.137448 9.77979
          }
        }
      }
    }
  }
  JOINT Spine
  {
    OFFSET 0 11.8905 0
    CHANNELS 6 Xposition Yposition Zposition Zrotation Xrotation Yrotation
    JOINT Spine1
    {
      OFFSET 0 25.6574 0.127663
      CHANNELS 6 Xposition Yposition Zposition Zrotation Xrotation Yrotation
      JOINT HEad
      {
        OFFSET 0 8.73416 0.011341
        CHANNELS 6 Xposition Yposition Zposition Zrotation Xrotation Yrotation
        End Site
        {
          OFFSET -0.29 12.7742 2.51395
        }
      }
      JOINT LeftShoulder1
      {
        OFFSET 8.99 -0.362252 -0.22
        CHANNELS 6 Xposition Yposition Zposition Zrotation Xrotation Yrotation
        JOINT LeftArm
        {
          OFFSET 10.2827 -0.00337999 0.322123
          CHANNELS 6 Xposition Yposition Zposition Zrotation Xrotation Yrotation
          JOINT LeftForeArm
          {
            OFFSET 26.2597 0.099144 -1.42434
            CHANNELS 6 Xposition Yposition Zposition Zrotation Xrotation Yrotation
            JOINT LeftHand
            {
              OFFSET 22.0886 0.0853718 1.02216
              CHANNELS 6 Xposition Yposition Zposition Zrotation Xrotation Yrotation
              End Site
              {
                OFFSET 13.4179 -0.600076 1.50291
              }
            }
          }
        }
      }
      JOINT RightShoulder
      {
        OFFSET -8.99 -0.362252 -0.22
        CHANNELS 6 Xposition Yposition Zposition Zrotation Xrotation Yrotation
        JOINT RightArm
        {
          OFFSET -10.2827 -0.00338 0.322123
          CHANNELS 6 Xposition Yposition Zposition Zrotation Xrotation Yrotation
          JOINT RightForeArm
          {
            OFFSET -26.364 0.099144 -1.42434
            CHANNELS 6 Xposition Yposition Zposition Zrotation Xrotation Yrotation
            JOINT RightHand
            {
              OFFSET -22.0307 0.0853717 1.02216
              CHANNELS 6 Xposition Yposition Zposition Zrotation Xrotation Yrotation
              End Site
              {
                OFFSET -13.3273 -0.600075 1.50291
              }
            }
          }
        }
      }
    }
  }
  JOINT LeftUpLeg
  {
    OFFSET 8.9458 -8.66707 0.101652
    CHANNELS 6 Xposition Yposition Zposition Zrotation Xrotation Yrotation
    JOINT LeftLeg
    {
      OFFSET 0 -44.4227 1.3727
      CHANNELS 6 Xposition Yposition Zposition Zrotation Xrotation Yrotation
      JOINT LeftFoot
      {
        OFFSET -0.253549 -42.0924 -1.46059
        CHANNELS 6 Xposition Yposition Zposition Zrotation Xrotation Yrotation
        JOINT LeftToes
        {
          OFFSET -0.04 -4.41509 8.4991
          CHANNELS 6 Xposition Yposition Zposition Zrotation Xrotation Yrotation
          End Site
          {
            OFFSET 0.08 -0.047448 9.77979
          }
        }
      }
    }
  }
}
MOTION
Frames:	7
Frame Time:	0.0333333
3.9457 99.2461 -5.74159 -0.95891 -3.5238 3.15594 -8.9458 -8.66707 0.101652 -5.10387 -9.46673 -5.30425 2.84217e-014 -44.4227 1.3727 -4.09586 28.7661 -7.67251 0.253549 -42.0924 -1.46059 6.01426 -13.0641 0.336058 0.04 -4.41509 8.4991 0.0462048 0.000530889 0.662642 9.85878e-014 11.8905 4.44089e-015 6.09943 7.83544 -0.0543708 3.55271e-015 25.6574 0.127663 -1.2257 0.774268 0.127523 -1.42109e-014 8.73416 0.011341 -1.35526 -26.559 2.8846 8.99 -0.362252 -0.22 -1.3418e-015 1.59028e-015 -7.95139e-016 10.2827 -0.00337999 0.322123 -11.9496 -53.4721 -8.42944 26.2597 0.099144 -1.42434 3.23418 63.9879 -4.99925 22.0783 0.0853846 1.02275 8.54352 9.81641 1.30183 -8.99 -0.362252 -0.22 -0.00680421 0.217195 8.2357e-005 -10.2827 -0.00338 0.322123 -12.4785 -55.8078 -2.8494 -26.364 0.099144 -1.42434 0.246821 33.1564 2.33819 -22.0209 0.0853625 1.02299 7.92704 8.90494 -13.0711 8.9458 -8.66707 0.101652 0.121899 -6.80575 -3.56413 2.30926e-014 -44.4227 1.3727 -1.68395 23.794 7.45533 -0.253549 -42.0924 -1.46059 0.272273 -18.1323 0.0720983 -0.04 -4.41509 8.4991 -1.32481e-009 8.7523e-006 -1.47115e-008 
4.02424 99.2556 -5.76603 -1.01048 -3.5766 3.10778 -8.9458 -8.66707 0.101652 -5.13912 -9.45874 -5.34213 3.01981e-014 -44.4227 1.3727 -4.17112 28.8674 -7.53429 0.253549 -42.0924 -1.46059 6.0998 -13.1132 0.336125 0.04 -4.41509 8.4991 0.0462048 0.000530889 0.662642 9.81437e-014 11.8905 7.10543e-015 6.17617 7.85711 -0.062551 3.55271e-015 25.6574 0.127663 -1.22156 0.753342 0.139899 -1.24345e-014 8.73416 0.011341 -1.3439 -26.5702 2.91572 8.99 -0.362252 -0.22 2.48481e-016 -7.95139e-016 1.59028e-015 10.2827 -0.00337999 0.322123 -11.9493 -53.5897 -8.32744 26.2597 0.099144 -1.42434 3.46546 64.1651 -5.27779 22.0773 0.0853876 1.02279 8.28631 9.85725 1.59952 -8.99 -0.362252 -0.22 -0.00680421 0.217195 8.2357e-005 -10.2827 -0.00338 0.322123 -12.6003 -55.7064 -2.8827 -26.364 0.099144 -1.42434 0.263656 32.9577 2.33292 -22.0208 0.0853626 1.02299 7.86871 8.9299 -12.8373 8.9458 -8.66707 0.101652 0.0751081 -6.68628 -3.62148 2.4869e-014 -44.4227 1.3727 -1.5943 23.6683 7.5075 -0.253549 -42.0924 -1.46059 0.259646 -18.1684 0.0721132 -0.04 -4.41509 8.4991 -1.32481e-009 8.7523e-006 -1.47115e-008 
4.03328 99.1883 -5.84905 -1.00143 -3.66248 3.14735 -8.9458 -8.66707 0.101652 -5.18467 -9.44095 -5.38612 3.01981e-014 -44.4227 1.3727 -4.11664 28.8676 -7.53174 0.253549 -42.0924 -1.46059 6.08093 -13.0896 0.336092 0.04 -4.41509 8.4991 0.0462048 0.000530889 0.662642 9.85878e-014 11.8905 6.21725e-015 6.14166 7.88592 -0.0950618 3.55271e-015 25.6574 0.127663 -1.17317 0.764528 0.0827693 -1.59872e-014 8.73416 0.011341 -1.49525 -26.754 2.74273 8.99 -0.362252 -0.22 4.96962e-017 -7.95139e-016 3.97569e-016 10.2827 -0.00337999 0.322123 -11.8288 -53.571 -8.31605 26.2597 0.099144 -1.42434 3.32286 63.9698 -5.11562 22.0778 0.0853859 1.02278 8.45891 9.83278 1.42237 -8.99 -0.362252 -0.22 -0.00680421 0.217195 8.2357e-005 -10.2827 -0.00338 0.322123 -12.673 -55.5568 -3.10056 -26.364 0.099144 -1.42434 0.282707 32.6902 2.3226 -22.0208 0.0853626 1.02299 7.73464 8.95991 -12.7318 8.9458 -8.66707 0.101652 0.0689302 -6.66706 -3.62571 2.66454e-014 -44.4227 1.3727 -1.68803 23.6848 7.50263 -0.253549 -42.0924 -1.46059 0.317535 -18.2261 0.0721371 -0.04 -4.41509 8.4991 -1.32481e-009 8.7523e-006 -1.47115e-008 
3.94711 99.1806 -5.89534 -0.878796 -3.72131 3.17456 -8.9458 -8.66707 0.101652 -5.20047 -9.42144 -5.37105 2.84217e-014 -44.4227 1.3727 -4.24178 28.8882 -7.50806 0.253549 -42.0924 -1.46059 6.14063 -13.0852 0.336086 0.04 -4.41509 8.4991 0.0462048 0.000530889 0.662642 9.9476e-014 11.8905 4.44089e-015 6.17095 7.83869 -0.110525 1.77636e-015 25.6574 0.127663 -0.965228 0.809243 0.0622249 -1.42109e-014 8.73416 0.011341 -1.28083 -27.024 2.85629 8.99 -0.362252 -0.22 -9.93923e-016 7.95139e-016 1.19271e-015 10.2827 -0.00337999 0.322123 -12.0628 -53.7706 -8.04122 26.2597 0.099144 -1.42434 3.69521 64.0993 -5.54014 22.0762 0.0853913 1.02283 7.75863 9.92865 2.15138 -8.99 -0.362252 -0.22 -0.00680421 0.217195 8.2357e-005 -10.2827 -0.00338 0.322123 -12.922 -54.9042 -3.01764 -26.364 0.099144 -1.42434 0.359006 32.1436 2.16907 -22.0218 0.085363 1.02292 7.07316 9.16488 -11.0547 8.9458 -8.66707 0.101652 0.0324353 -6.62455 -3.62207 2.66454e-014 -44.4227 1.3727 -1.6608 23.6434 7.44938 -0.253549 -42.0924 -1.46059 0.332361 -18.1956 0.0721244 -0.04 -4.41509 8.4991 -1.32481e-009 8.7523e-006 -1.47115e-008 
3.91442 99.2268 -5.91161 -0.883166 -3.74618 3.21949 -8.9458 -8.66707 0.101652 -5.18901 -9.3424 -5.38423 3.01981e-014 -44.4227 1.3727 -4.05151 28.8166 -7.63723 0.253549 -42.0924 -1.46059 6.06976 -13.0385 0.327527 0.04 -4.41509 8.4991 0.0462048 0.000530889 0.662642 9.85878e-014 11.8905 6.21725e-015 6.10775 7.84991 -0.1282 3.55271e-015 25.6574 0.127663 -1.01236 0.758017 -0.0032506 -1.42109e-014 8.73416 0.011341 -1.38346 -26.9027 2.76873 8.99 -0.362252 -0.22 -4.47266e-016 7.95139e-016 -3.97569e-016 10.2827 -0.00337999 0.322123 -11.7799 -53.6829 -8.21559 26.2597 0.099144 -1.42434 3.4157 64.046 -5.2258 22.0774 0.0853871 1.02279 8.329 9.84855 1.53303 -8.99 -0.362252 -0.22 -0.00680421 0.217195 8.2357e-005 -10.2827 -0.00338 0.322123 -12.9144 -55.1455 -3.4174 -26.364 0.099144 -1.42434 0.314234 32.3899 2.29529 -22.0209 0.0853628 1.02298 7.33617 9.06648 -12.0668 8.9458 -8.66707 0.101652 0.10427 -6.65899 -3.59313 2.4869e-014 -44.4227 1.3727 -1.7196 23.7744 7.42673 -0.253549 -42.0924 -1.46059 0.327984 -18.2062 0.0714497 -0.04 -4.41509 8.4991 -1.32481e-009 8.7523e-006 -1.47115e-008 
3.9376 99.2433 -5.93372 -0.89353 -3.76873 3.21593 -8.9458 -8.66707 0.101652 -5.23765 -9.32744 -5.40318 3.19744e-014 -44.4227 1.3727 -3.99549 28.8153 -7.62808 0.253549 -42.0924 -1.46059 6.04149 -13.0033 0.323638 0.04 -4.41509 8.4991 0.0462048 0.000530889 0.662642 9.85878e-014 11.8905 7.10543e-015 6.15606 7.86761 -0.127401 -1.77636e-015 25.6574 0.127663 -1.0801 0.72736 0.021514 -1.42109e-014 8.73416 0.011341 -1.38751 -26.6167 2.76603 8.99 -0.362252 -0.22 1.98785e-016 1.59028e-015 -0 10.2827 -0.00337999 0.322123 -11.7006 -53.6786 -8.10452 26.2597 0.099144 -1.42434 3.40376 63.9799 -5.21616 22.0774 0.0853871 1.02279 8.43953 9.83592 1.44524 -8.99 -0.362252 -0.22 -0.00680421 0.217195 8.2357e-005 -10.2827 -0.00338 0.322123 -12.8748 -55.093 -3.3101 -26.364 0.099144 -1.42434 0.312317 32.5274 2.27738 -22.0211 0.0853628 1.02297 7.24067 9.09529 -11.8316 8.9458 -8.66707 0.101652 0.0779713 -6.65979 -3.60358 2.4869e-014 -44.4227 1.3727 -1.71258 23.8189 7.44207 -0.253549 -42.0924 -1.46059 0.272552 -18.1894 0.0638358 -0.04 -4.41509 8.4991 -1.32481e-009 8.7523e-006 -1.47115e-008 
3.96365 99.2159 -5.97147 -0.940446 -3.77818 3.24322 -8.9458 -8.66707 0.101652 -5.24634 -9.33275 -5.4068 2.84217e-014 -44.4227 1.3727 -4.01229 28.7684 -7.62214 0.253549 -42.0924 -1.46059 6.02925 -12.9781 0.322986 0.04 -4.41509 8.4991 0.0462048 0.000530889 0.662642 9.90319e-014 11.8905 6.21725e-015 6.16299 7.79908 -0.111932 1.77636e-015 25.6574 0.127663 -1.04277 0.77033 0.0307613 -1.42109e-014 8.73416 0.011341 -1.32857 -26.6388 2.82868 8.99 -0.362252 -0.22 -1.19271e-015 -7.95139e-016 -0 10.2827 -0.00337999 0.322123 -11.6877 -53.6881 -8.09885 26.2597 0.099144 -1.42434 3.43971 64.1044 -5.25087 22.0773 0.0853874 1.02279 8.51992 9.83565 1.45588 -8.99 -0.362252 -0.22 -0.00680421 0.217195 8.2357e-005 -10.2827 -0.00338 0.322123 -12.9192 -55.1091 -3.29208 -26.364 0.099144 -1.42434 0.305941 32.6263 2.2812 -22.0211 0.0853628 1.02297 7.19466 9.10177 -11.8483 8.9458 -8.66707 0.101652 0.0546058 -6.6435 -3.6257 2.4869e-014 -44.4227 1.3727 -1.63476 23.7292 7.42276 -0.253549 -42.0924 -1.46059 0.201941 -18.1815 0.0538566 -0.04 -4.41509 8.4991 -1.32481e-009 8.7523e-006 -1.47115e-008 
